<svg width="770" height="159" viewBox="0 0 770 159" fill="none" xmlns="http://www.w3.org/2000/svg">
<rect x="0.802094" y="0.0599365" width="241.078" height="121.896" rx="6.04099" fill="#123970"/>
<path d="M59.1173 44.2876V93.3075H46.8639V44.2876H32.8934V33.4034H73.1659V44.2876H59.1173Z" fill="white"/>
<path d="M138.179 63.4782C138.179 67.761 137.412 71.8119 135.877 75.6309C134.368 79.4499 132.183 82.8052 129.321 85.6967C126.355 88.6701 123.012 90.9479 119.292 92.5301C115.572 94.1122 111.721 94.9033 107.741 94.9033C104.255 94.9033 100.834 94.2895 97.4777 93.062C94.1476 91.8072 91.0908 90.0204 88.3071 87.7017C84.7169 84.7011 81.9592 81.1139 80.0341 76.9403C78.1349 72.7666 77.1853 68.2793 77.1853 63.4782C77.1853 59.1682 77.9398 55.1309 79.4487 51.3664C80.9576 47.5747 83.169 44.2058 86.0827 41.2597C88.9445 38.3408 92.2615 36.0767 96.0338 34.4673C99.8321 32.8578 103.734 32.0531 107.741 32.0531C111.721 32.0531 115.585 32.8578 119.331 34.4673C123.103 36.0767 126.433 38.3408 129.321 41.2597C132.209 44.2058 134.407 47.5747 135.916 51.3664C137.425 55.1582 138.179 59.1954 138.179 63.4782ZM107.741 83.4872C112.918 83.4872 117.185 81.5913 120.541 77.7995C123.923 73.9805 125.614 69.2067 125.614 63.4782C125.614 57.8042 123.91 53.0304 120.502 49.1569C117.094 45.2833 112.84 43.3465 107.741 43.3465C102.564 43.3465 98.2712 45.2833 94.8631 49.1569C91.455 53.0032 89.751 57.777 89.751 63.4782C89.751 69.2613 91.429 74.0487 94.785 77.8405C98.1411 81.6049 102.46 83.4872 107.741 83.4872Z" fill="white"/>
<path d="M143.565 93.3075L152.267 33.4034H165.067L176.071 68.6748C176.306 69.4113 176.553 70.4888 176.813 71.9073C177.099 73.3258 177.359 74.9489 177.593 76.7766C177.802 74.9216 178.036 73.2713 178.296 71.8255C178.556 70.3524 178.803 69.2749 179.037 68.593L190.237 33.4034H202.842L211.583 93.3075H199.993L195.818 57.1768C195.505 54.5035 195.297 52.4849 195.193 51.1209C195.089 49.757 195.037 48.4885 195.037 47.3156C195.037 46.6881 195.037 46.2244 195.037 45.9243C195.063 45.597 195.089 45.3106 195.115 45.0651C194.725 47.411 194.348 49.4433 193.983 51.1619C193.645 52.8531 193.333 54.1352 193.047 55.0082L180.949 93.3075H174.081L162.179 55.0082C162.075 54.6535 161.841 53.6715 161.477 52.0621C161.138 50.4526 160.657 48.1066 160.033 45.0241V46.7836C160.033 49.5661 159.799 52.9759 159.33 57.0131L159.291 57.1768L155.155 93.3075H143.565Z" fill="white"/>
<path d="M206.191 158.093L184.797 119.957L227.586 119.957L206.191 158.093Z" fill="#123970"/>
<path d="M276.066 43.2502V94.4354H265.799V43.2502H276.066ZM329.988 94.4354H319.721L296.475 59.3098V94.4354H286.209V43.1769H296.475L319.721 78.3759V43.1769H329.988V94.4354ZM371.739 43.2502V51.5366H350.399V64.6629H366.752V72.8027H350.399V94.4354H340.133V43.2502H371.739ZM402.778 94.9487C397.987 94.9487 393.587 93.8243 389.578 91.5755C385.57 89.3267 382.392 86.2223 380.045 82.2624C377.699 78.2537 376.525 73.7316 376.525 68.6962C376.525 63.7096 377.699 59.2364 380.045 55.2765C382.392 51.2678 385.57 48.139 389.578 45.8901C393.587 43.6413 397.987 42.5169 402.778 42.5169C407.618 42.5169 412.018 43.6413 415.978 45.8901C419.986 48.139 423.14 51.2678 425.437 55.2765C427.784 59.2364 428.957 63.7096 428.957 68.6962C428.957 73.7316 427.784 78.2537 425.437 82.2624C423.14 86.2223 419.986 89.3267 415.978 91.5755C411.969 93.8243 407.569 94.9487 402.778 94.9487ZM402.778 85.7823C405.858 85.7823 408.571 85.0979 410.918 83.7291C413.264 82.3113 415.098 80.3069 416.418 77.7159C417.738 75.1249 418.398 72.1183 418.398 68.6962C418.398 65.274 417.738 62.2919 416.418 59.7497C415.098 57.1587 413.264 55.1788 410.918 53.8099C408.571 52.4411 405.858 51.7566 402.778 51.7566C399.698 51.7566 396.96 52.4411 394.565 53.8099C392.218 55.1788 390.385 57.1587 389.065 59.7497C387.745 62.2919 387.085 65.274 387.085 68.6962C387.085 72.1183 387.745 75.1249 389.065 77.7159C390.385 80.3069 392.218 82.3113 394.565 83.7291C396.96 85.0979 399.698 85.7823 402.778 85.7823ZM462.994 94.4354L451.701 74.4893H446.862V94.4354H436.595V43.2502H455.808C459.768 43.2502 463.141 43.9591 465.928 45.3768C468.714 46.7457 470.792 48.6278 472.161 51.0233C473.579 53.3699 474.287 56.0099 474.287 58.9431C474.287 62.3163 473.31 65.3718 471.354 68.1095C469.399 70.7983 466.49 72.656 462.628 73.6827L474.874 94.4354H462.994ZM446.862 66.7895H455.441C458.228 66.7895 460.306 66.1296 461.674 64.8096C463.043 63.4408 463.728 61.5586 463.728 59.1631C463.728 56.8165 463.043 55.0077 461.674 53.7366C460.306 52.4166 458.228 51.7566 455.441 51.7566H446.862V66.7895ZM539.378 43.2502V94.4354H529.112V61.143L515.399 94.4354H507.626L493.839 61.143V94.4354H483.573V43.2502H495.233L511.512 81.3091L527.792 43.2502H539.378ZM580.914 84.6824H560.528L557.155 94.4354H546.375L564.781 43.1769H576.734L595.14 94.4354H584.287L580.914 84.6824ZM578.127 76.4693L570.721 55.0566L563.314 76.4693H578.127ZM636.852 43.2502V51.5366H623.213V94.4354H612.946V51.5366H599.307V43.2502H636.852ZM654.61 43.2502V94.4354H644.343V43.2502H654.61ZM710.731 43.2502L691.959 94.4354H679.492L660.719 43.2502H671.719L685.799 83.9491L699.805 43.2502H710.731ZM740.646 94.9487C735.855 94.9487 731.455 93.8243 727.446 91.5755C723.438 89.3267 720.26 86.2223 717.913 82.2624C715.567 78.2537 714.393 73.7316 714.393 68.6962C714.393 63.7096 715.567 59.2364 717.913 55.2765C720.26 51.2678 723.438 48.139 727.446 45.8901C731.455 43.6413 735.855 42.5169 740.646 42.5169C745.486 42.5169 749.886 43.6413 753.846 45.8901C757.854 48.139 761.008 51.2678 763.305 55.2765C765.652 59.2364 766.825 63.7096 766.825 68.6962C766.825 73.7316 765.652 78.2537 763.305 82.2624C761.008 86.2223 757.854 89.3267 753.846 91.5755C749.837 93.8243 745.437 94.9487 740.646 94.9487ZM740.646 85.7823C743.726 85.7823 746.439 85.0979 748.786 83.7291C751.132 82.3113 752.966 80.3069 754.286 77.7159C755.606 75.1249 756.266 72.1183 756.266 68.6962C756.266 65.274 755.606 62.2919 754.286 59.7497C752.966 57.1587 751.132 55.1788 748.786 53.8099C746.439 52.4411 743.726 51.7566 740.646 51.7566C737.566 51.7566 734.828 52.4411 732.433 53.8099C730.086 55.1788 728.253 57.1587 726.933 59.7497C725.613 62.2919 724.953 65.274 724.953 68.6962C724.953 72.1183 725.613 75.1249 726.933 77.7159C728.253 80.3069 730.086 82.3113 732.433 83.7291C734.828 85.0979 737.566 85.7823 740.646 85.7823Z" fill="#1E1E1E"/>
</svg>
