<svg width="767" height="159" viewBox="0 0 767 159" fill="none" xmlns="http://www.w3.org/2000/svg">
<path d="M0.377228 6.10093C0.377228 2.76458 3.08187 0.0599365 6.41822 0.0599365H235.414C238.75 0.0599365 241.455 2.76458 241.455 6.10093V115.915C241.455 119.252 238.75 121.956 235.414 121.956H6.41822C3.08187 121.956 0.377228 119.252 0.377228 115.915V6.10093Z" fill="#123970"/>
<path { fill: blue } d="M58.6925 44.2877V93.3075H46.439V44.2877H32.4685V33.4034H72.741V44.2877H58.6925Z" fill="white"/>
<path d="M137.755 63.4782C137.755 67.761 136.987 71.8119 135.452 75.6309C133.943 79.45 131.758 82.8052 128.896 85.6968C125.93 88.6702 122.587 90.9479 118.867 92.5301C115.147 94.1123 111.296 94.9034 107.316 94.9034C103.83 94.9034 100.409 94.2896 97.0528 93.062C93.7228 91.8072 90.6659 90.0205 87.8822 87.7018C84.2921 84.7011 81.5344 81.1139 79.6092 76.9403C77.7101 72.7667 76.7605 68.2793 76.7605 63.4782C76.7605 59.1682 77.5149 55.131 79.0238 51.3665C80.5328 47.5747 82.7441 44.2058 85.6579 41.2597C88.5196 38.3409 91.8366 36.0768 95.6089 34.4673C99.4072 32.8579 103.31 32.0531 107.316 32.0531C111.296 32.0531 115.16 32.8579 118.906 34.4673C122.678 36.0768 126.008 38.3409 128.896 41.2597C131.784 44.2058 133.982 47.5747 135.491 51.3665C137 55.1582 137.755 59.1955 137.755 63.4782ZM107.316 83.4872C112.493 83.4872 116.76 81.5913 120.116 77.7996C123.498 73.9806 125.189 69.2068 125.189 63.4782C125.189 57.8043 123.485 53.0305 120.077 49.1569C116.669 45.2833 112.415 43.3465 107.316 43.3465C102.139 43.3465 97.8463 45.2833 94.4382 49.1569C91.0302 53.0032 89.3261 57.777 89.3261 63.4782C89.3261 69.2613 91.0041 74.0488 94.3602 77.8405C97.7162 81.605 102.035 83.4872 107.316 83.4872Z" fill="white"/>
<path d="M143.14 93.3075L151.842 33.4034H164.642L175.647 68.6748C175.881 69.4114 176.128 70.4889 176.388 71.9074C176.674 73.3259 176.934 74.949 177.169 76.7766C177.377 74.9217 177.611 73.2713 177.871 71.8255C178.131 70.3525 178.378 69.275 178.612 68.593L189.812 33.4034H202.417L211.158 93.3075H199.568L195.393 57.1769C195.08 54.5035 194.872 52.4849 194.768 51.121C194.664 49.757 194.612 48.4886 194.612 47.3156C194.612 46.6882 194.612 46.2244 194.612 45.9244C194.638 45.597 194.664 45.3106 194.69 45.0651C194.3 47.4111 193.923 49.4433 193.559 51.1619C193.22 52.8532 192.908 54.1353 192.622 55.0082L180.525 93.3075H173.656L161.754 55.0082C161.65 54.6536 161.416 53.6715 161.052 52.0621C160.714 50.4527 160.232 48.1067 159.608 45.0242V46.7837C159.608 49.5661 159.374 52.9759 158.905 57.0132L158.866 57.1769L154.73 93.3075H143.14Z" fill="white"/>
<path d="M205.766 158.093L184.372 119.957L227.161 119.957L205.766 158.093Z" fill="#123970"/>
<path d="M275.641 43.2502V94.4354H265.374V43.2502H275.641Z" fill="currentColor"/>
<path d="M329.563 94.4354H319.296L296.05 59.3097V94.4354H285.784V43.1769H296.05L319.296 78.3759V43.1769H329.563V94.4354Z" fill="currentColor"/>
<path d="M371.314 43.2502V51.5366H349.975V64.6629H366.327V72.8027H349.975V94.4354H339.708V43.2502H371.314Z" fill="currentColor"/>
<path d="M402.353 94.9487C397.562 94.9487 393.162 93.8243 389.154 91.5755C385.145 89.3267 381.967 86.2223 379.62 82.2624C377.274 78.2537 376.101 73.7316 376.101 68.6962C376.101 63.7096 377.274 59.2364 379.62 55.2765C381.967 51.2678 385.145 48.139 389.154 45.8901C393.162 43.6413 397.562 42.5169 402.353 42.5169C407.193 42.5169 411.593 43.6413 415.553 45.8901C419.562 48.139 422.715 51.2678 425.012 55.2765C427.359 59.2364 428.532 63.7096 428.532 68.6962C428.532 73.7316 427.359 78.2537 425.012 82.2624C422.715 86.2223 419.562 89.3267 415.553 91.5755C411.544 93.8243 407.144 94.9487 402.353 94.9487ZM402.353 85.7823C405.433 85.7823 408.146 85.0979 410.493 83.729C412.839 82.3113 414.673 80.3069 415.993 77.7159C417.313 75.1249 417.973 72.1183 417.973 68.6962C417.973 65.274 417.313 62.2919 415.993 59.7497C414.673 57.1587 412.839 55.1788 410.493 53.8099C408.146 52.4411 405.433 51.7566 402.353 51.7566C399.273 51.7566 396.536 52.4411 394.14 53.8099C391.793 55.1788 389.96 57.1587 388.64 59.7497C387.32 62.2919 386.66 65.274 386.66 68.6962C386.66 72.1183 387.32 75.1249 388.64 77.7159C389.96 80.3069 391.793 82.3113 394.14 83.729C396.536 85.0979 399.273 85.7823 402.353 85.7823Z" fill="currentColor"/>
<path d="M462.57 94.4354L451.277 74.4893H446.437V94.4354H436.17V43.2502H455.383C459.343 43.2502 462.716 43.9591 465.503 45.3768C468.289 46.7457 470.367 48.6278 471.736 51.0233C473.154 53.3699 473.863 56.0098 473.863 58.9431C473.863 62.3163 472.885 65.3718 470.929 68.1095C468.974 70.7983 466.065 72.656 462.203 73.6827L474.449 94.4354H462.57ZM446.437 66.7895H455.016C457.803 66.7895 459.881 66.1296 461.25 64.8096C462.618 63.4407 463.303 61.5586 463.303 59.1631C463.303 56.8165 462.618 55.0076 461.25 53.7366C459.881 52.4166 457.803 51.7566 455.016 51.7566H446.437V66.7895Z" fill="currentColor"/>
<path d="M538.953 43.2502V94.4354H528.687V61.143L514.974 94.4354H507.201L493.414 61.143V94.4354H483.148V43.2502H494.808L511.087 81.3091L527.367 43.2502H538.953Z" fill="currentColor"/>
<path d="M580.489 84.6824H560.103L556.73 94.4354H545.95L564.356 43.1769H576.309L594.715 94.4354H583.862L580.489 84.6824ZM577.702 76.4693L570.296 55.0565L562.89 76.4693H577.702Z" fill="currentColor"/>
<path d="M636.428 43.2502V51.5366H622.788V94.4354H612.522V51.5366H598.882V43.2502H636.428Z" fill="currentColor"/>
<path d="M654.185 43.2502V94.4354H643.918V43.2502H654.185Z" fill="currentColor"/>
<path d="M710.306 43.2502L691.534 94.4354H679.067L660.295 43.2502H671.294L685.374 83.949L699.38 43.2502H710.306Z" fill="currentColor"/>
<path d="M740.221 94.9487C735.43 94.9487 731.03 93.8243 727.021 91.5755C723.013 89.3267 719.835 86.2223 717.488 82.2624C715.142 78.2537 713.968 73.7316 713.968 68.6962C713.968 63.7096 715.142 59.2364 717.488 55.2765C719.835 51.2678 723.013 48.139 727.021 45.8901C731.03 43.6413 735.43 42.5169 740.221 42.5169C745.061 42.5169 749.461 43.6413 753.421 45.8901C757.429 48.139 760.583 51.2678 762.88 55.2765C765.227 59.2364 766.4 63.7096 766.4 68.6962C766.4 73.7316 765.227 78.2537 762.88 82.2624C760.583 86.2223 757.429 89.3267 753.421 91.5755C749.412 93.8243 745.012 94.9487 740.221 94.9487ZM740.221 85.7823C743.301 85.7823 746.014 85.0979 748.361 83.729C750.707 82.3113 752.541 80.3069 753.861 77.7159C755.181 75.1249 755.841 72.1183 755.841 68.6962C755.841 65.274 755.181 62.2919 753.861 59.7497C752.541 57.1587 750.707 55.1788 748.361 53.8099C746.014 52.4411 743.301 51.7566 740.221 51.7566C737.141 51.7566 734.403 52.4411 732.008 53.8099C729.661 55.1788 727.828 57.1587 726.508 59.7497C725.188 62.2919 724.528 65.274 724.528 68.6962C724.528 72.1183 725.188 75.1249 726.508 77.7159C727.828 80.3069 729.661 82.3113 732.008 83.729C734.403 85.0979 737.141 85.7823 740.221 85.7823Z" fill="currentColor"/>
</svg>